<svg version="1.1" id="Layer_1" xmlns="http://www.w3.org/2000/svg" xmlns:xlink="http://www.w3.org/1999/xlink" x="0px" y="0px"
	 width="100%" viewBox="0 0 1024 1024" enable-background="new 0 0 1024 1024" xml:space="preserve">
<path fill="#C2956E" opacity="1.000000" stroke="none" 
	d="
M682.000000,1025.000000 
	C454.666656,1025.000000 227.833328,1025.000000 1.000000,1025.000000 
	C1.000000,683.666687 1.000000,342.333344 1.000000,1.000000 
	C342.333344,1.000000 683.666687,1.000000 1025.000000,1.000000 
	C1025.000000,342.333344 1025.000000,683.666687 1025.000000,1025.000000 
	C910.833313,1025.000000 796.666687,1025.000000 682.000000,1025.000000 
M422.500000,849.035156 
	C517.820496,849.035095 613.140991,849.040222 708.461487,849.015381 
	C712.120544,849.014465 715.816833,849.006653 719.432800,848.526855 
	C770.436890,841.758545 807.512451,800.131958 807.619995,748.484619 
	C807.867798,629.500916 807.720337,510.516296 807.689758,391.532043 
	C807.682983,365.142700 799.841248,341.162292 781.405212,322.241425 
	C743.031433,282.858521 704.039062,244.063171 664.681763,205.660812 
	C646.892212,188.302872 624.673889,179.153259 599.641541,179.046768 
	C529.986511,178.750458 460.328888,178.806946 390.673370,179.040863 
	C368.971680,179.113754 349.405548,186.542374 332.562439,200.059525 
	C306.742340,220.780991 293.628601,247.654068 293.709259,281.202148 
	C293.965942,388.020752 293.798798,494.840332 293.809479,601.659546 
	C293.814484,651.819397 293.457703,701.983459 293.987915,752.137939 
	C294.492493,799.869507 331.782013,841.880005 379.085266,847.960266 
	C393.039001,849.753906 407.351776,848.754578 422.500000,849.035156 
z"/>
<path fill="#10182A" opacity="1.000000" stroke="none" 
	d="
M422.000000,849.035156 
	C407.351776,848.754578 393.039001,849.753906 379.085266,847.960266 
	C331.782013,841.880005 294.492493,799.869507 293.987915,752.137939 
	C293.457703,701.983459 293.814484,651.819397 293.809479,601.659546 
	C293.798798,494.840332 293.965942,388.020752 293.709259,281.202148 
	C293.628601,247.654068 306.742340,220.780991 332.562439,200.059525 
	C349.405548,186.542374 368.971680,179.113754 390.673370,179.040863 
	C460.328888,178.806946 529.986511,178.750458 599.641541,179.046768 
	C624.673889,179.153259 646.892212,188.302872 664.681763,205.660812 
	C704.039062,244.063171 743.031433,282.858521 781.405212,322.241425 
	C799.841248,341.162292 807.682983,365.142700 807.689758,391.532043 
	C807.720337,510.516296 807.867798,629.500916 807.619995,748.484619 
	C807.512451,800.131958 770.436890,841.758545 719.432800,848.526855 
	C715.816833,849.006653 712.120544,849.014465 708.461487,849.015381 
	C613.140991,849.040222 517.820496,849.035095 422.000000,849.035156 
M448.499817,804.457825 
	C533.324097,804.457642 618.148376,804.478577 702.972595,804.407043 
	C708.277832,804.402527 713.728638,804.325684 718.862854,803.173462 
	C745.704529,797.150024 763.015503,775.125671 763.027100,747.181885 
	C763.071716,639.526733 763.047058,531.871521 763.035828,424.216370 
	C763.035645,422.607239 762.877319,420.998138 762.772461,419.001587 
	C760.618652,419.001587 758.819275,419.001587 757.019897,419.001587 
	C727.023132,419.001556 697.026306,418.984100 667.029541,419.009308 
	C653.164001,419.020935 639.715332,416.489197 627.314941,410.448700 
	C588.114075,391.353119 567.995300,359.788055 567.554810,316.113708 
	C567.260620,286.953125 567.440552,257.786926 567.569458,228.623932 
	C567.586304,224.808929 566.601074,223.452957 562.558655,223.461884 
	C506.898193,223.584808 451.237396,223.550217 395.576660,223.545135 
	C382.868011,223.543976 371.158783,226.865616 360.999268,234.592728 
	C345.122406,246.668335 338.268982,262.952087 338.287323,282.777191 
	C338.406067,411.263336 338.348114,539.749695 338.348328,668.235962 
	C338.348389,694.233215 338.625214,720.234070 338.281311,746.226746 
	C337.842224,779.416260 363.566620,805.467529 396.507599,804.539795 
	C413.492279,804.061523 430.501587,804.457397 448.499817,804.457825 
M648.014099,370.628784 
	C655.358704,371.806976 662.690308,373.896942 670.050171,374.001648 
	C698.199890,374.401978 726.358826,374.167908 754.514282,374.153320 
	C756.090027,374.152527 757.665649,373.996033 759.712341,373.886902 
	C757.056458,365.190704 753.615845,357.502045 747.499207,351.361206 
	C710.464600,314.179657 673.394287,277.033508 636.256409,239.955231 
	C629.689270,233.398621 621.747314,229.083466 612.732239,226.829941 
	C612.438110,227.501938 612.201782,227.789658 612.201965,228.077225 
	C612.218933,259.229919 611.447815,290.411224 612.552979,321.525848 
	C613.374329,344.651642 625.979431,360.975128 648.014099,370.628784 
z"/>
<path fill="#C2956E" opacity="1.000000" stroke="none" 
	d="
M447.999817,804.458008 
	C430.501587,804.457397 413.492279,804.061523 396.507599,804.539795 
	C363.566620,805.467529 337.842224,779.416260 338.281311,746.226746 
	C338.625214,720.234070 338.348389,694.233215 338.348328,668.235962 
	C338.348114,539.749695 338.406067,411.263336 338.287323,282.777191 
	C338.268982,262.952087 345.122406,246.668335 360.999268,234.592728 
	C371.158783,226.865616 382.868011,223.543976 395.576660,223.545135 
	C451.237396,223.550217 506.898193,223.584808 562.558655,223.461884 
	C566.601074,223.452957 567.586304,224.808929 567.569458,228.623932 
	C567.440552,257.786926 567.260620,286.953125 567.554810,316.113708 
	C567.995300,359.788055 588.114075,391.353119 627.314941,410.448700 
	C639.715332,416.489197 653.164001,419.020935 667.029541,419.009308 
	C697.026306,418.984100 727.023132,419.001556 757.019897,419.001587 
	C758.819275,419.001587 760.618652,419.001587 762.772461,419.001587 
	C762.877319,420.998138 763.035645,422.607239 763.035828,424.216370 
	C763.047058,531.871521 763.071716,639.526733 763.027100,747.181885 
	C763.015503,775.125671 745.704529,797.150024 718.862854,803.173462 
	C713.728638,804.325684 708.277832,804.402527 702.972595,804.407043 
	C618.148376,804.478577 533.324097,804.457642 447.999817,804.458008 
M463.908905,603.500000 
	C463.908905,632.249268 463.908905,660.998474 463.908905,689.744080 
	C484.085144,689.744080 503.525330,689.744080 523.621582,689.744080 
	C523.621582,651.617371 523.621582,613.740479 523.621582,575.488586 
	C529.918884,575.488586 535.602051,575.916931 541.198547,575.402588 
	C554.252686,574.202698 567.565002,573.807922 580.225525,570.790833 
	C600.201477,566.030273 614.874634,554.022644 620.801270,533.466492 
	C626.732361,512.894592 626.941772,491.991241 622.587402,471.152771 
	C619.258789,455.223236 611.900024,441.427368 598.227600,431.757599 
	C586.663940,423.579163 573.427979,420.331024 559.583069,420.181000 
	C528.587402,419.845154 497.586029,420.029297 466.587006,420.018280 
	C465.803772,420.017975 465.020447,420.210114 463.908875,420.355408 
	C463.908875,481.232361 463.908875,541.866150 463.908905,603.500000 
z"/>
<path fill="#CAD4E0" opacity="1.000000" stroke="none" 
	d="
M647.661499,370.460205 
	C625.979431,360.975128 613.374329,344.651642 612.552979,321.525848 
	C611.447815,290.411224 612.218933,259.229919 612.201965,228.077225 
	C612.201782,227.789658 612.438110,227.501938 612.732239,226.829941 
	C621.747314,229.083466 629.689270,233.398621 636.256409,239.955231 
	C673.394287,277.033508 710.464600,314.179657 747.499207,351.361206 
	C753.615845,357.502045 757.056458,365.190704 759.712341,373.886902 
	C757.665649,373.996033 756.090027,374.152527 754.514282,374.153320 
	C726.358826,374.167908 698.199890,374.401978 670.050171,374.001648 
	C662.690308,373.896942 655.358704,371.806976 647.661499,370.460205 
z"/>
<path fill="#000000" opacity="1.000000" stroke="none" 
	d="
M463.908875,603.000000 
	C463.908875,541.866150 463.908875,481.232361 463.908875,420.355408 
	C465.020447,420.210114 465.803772,420.017975 466.587006,420.018280 
	C497.586029,420.029297 528.587402,419.845154 559.583069,420.181000 
	C573.427979,420.331024 586.663940,423.579163 598.227600,431.757599 
	C611.900024,441.427368 619.258789,455.223236 622.587402,471.152771 
	C626.941772,491.991241 626.732361,512.894592 620.801270,533.466492 
	C614.874634,554.022644 600.201477,566.030273 580.225525,570.790833 
	C567.565002,573.807922 554.252686,574.202698 541.198547,575.402588 
	C535.602051,575.916931 529.918884,575.488586 523.621582,575.488586 
	C523.621582,613.740479 523.621582,651.617371 523.621582,689.744080 
	C503.525330,689.744080 484.085144,689.744080 463.908905,689.744080 
	C463.908905,660.998474 463.908905,632.249268 463.908875,603.000000 
M527.763062,461.992645 
	C526.383972,462.122681 525.004883,462.252747 523.896912,462.357208 
	C523.896912,486.506927 523.896912,510.039185 523.896912,533.136108 
	C533.126038,533.136108 541.945923,533.553955 550.707031,533.015320 
	C558.994385,532.505798 564.632446,527.681396 566.777100,519.603271 
	C570.336609,506.196564 570.436157,492.582367 567.506287,479.081238 
	C565.082031,467.910095 559.148804,463.037811 547.670288,462.275208 
	C541.372498,461.856781 535.032959,462.066223 527.763062,461.992645 
z"/>
<path fill="#BF926C" opacity="1.000000" stroke="none" 
	d="
M528.237671,461.992615 
	C535.032959,462.066223 541.372498,461.856781 547.670288,462.275208 
	C559.148804,463.037811 565.082031,467.910095 567.506287,479.081238 
	C570.436157,492.582367 570.336609,506.196564 566.777100,519.603271 
	C564.632446,527.681396 558.994385,532.505798 550.707031,533.015320 
	C541.945923,533.553955 533.126038,533.136108 523.896912,533.136108 
	C523.896912,510.039185 523.896912,486.506927 523.896912,462.357208 
	C525.004883,462.252747 526.383972,462.122681 528.237671,461.992615 
z"/>
</svg>